# Blender v2.80 (sub 75) OBJ File: ''
# www.blender.org
mtllib wand.mtl
o mesh_1747389405_mesh
v 61.403164 1.074899 -7.070572
v 61.352757 6.553261 -4.447021
v 55.760689 6.503639 -4.450867
v 55.811104 1.025276 -7.074417
v 61.336582 7.917842 1.472061
v 55.744518 7.868221 1.468231
v 61.366821 4.141084 6.229477
v 55.774757 4.091463 6.225647
v 61.420715 -1.933037 6.242828
v 55.828648 -1.982658 6.238983
v 61.457668 -5.730581 1.502029
v 55.865601 -5.780205 1.498184
v 61.449860 -4.391926 -4.423004
v 55.857792 -4.441549 -4.426834
v 72.801941 -5.629925 1.509811
v 72.794128 -4.291271 -4.415207
v 41.958664 5.834834 -4.022751
v 42.004032 0.904306 -6.383926
v 41.944103 7.062957 1.304459
v 41.971329 3.663874 5.586151
v 42.019817 -1.802837 5.598145
v 42.053074 -5.220625 1.331421
v 42.046055 -4.015837 -4.001114
v 29.448486 0.764873 -5.820755
v 29.219015 6.135788 1.022736
v 29.088709 -1.428535 4.982101
v 29.015556 -4.387442 1.168320
v 28.944633 -3.384739 -3.480423
v 24.539890 8.576690 -5.351868
v 22.311527 4.232994 -3.194458
v 22.143150 0.595277 -4.867508
v 24.682482 9.236592 -0.975418
v 24.801548 4.846395 7.544632
v 21.696207 2.789868 3.854401
v 25.420967 -4.454931 5.900986
v 21.375847 -1.204271 3.922302
v 25.528214 -7.360895 2.561386
v 21.392788 -3.765066 0.839706
v 25.154352 -5.802921 -6.078873
v 21.734278 -2.964191 -3.072144
v 25.270969 -1.934208 -8.230301
v -10.589828 0.442330 -4.253418
v -10.619603 3.677251 -2.704208
v -80.303207 1.737654 -1.693726
v -80.285629 -0.172537 -2.608490
v -10.629148 4.483025 0.790939
v -80.308838 2.213452 0.370148
v -10.611290 2.252886 3.600143
v -80.298294 0.896580 2.028946
v -10.579466 -1.333822 3.608017
v -80.279480 -1.221333 2.033600
v -10.557652 -3.576235 0.808640
v -80.266632 -2.545460 0.380585
v -10.562262 -2.785772 -2.690048
v -80.269363 -2.078699 -1.685349
v -118.094376 0.408844 -0.923721
v -118.085968 -0.504789 -1.361267
v -118.097076 0.636420 0.063400
v -118.092026 0.006561 0.856812
v -118.083023 -1.006428 0.859039
v -118.076889 -1.639757 0.068405
v -118.078186 -1.416506 -0.919724
v 72.764984 -1.832380 6.250610
v 72.711090 4.241740 6.237289
v 72.680847 8.018499 1.479858
v 72.697021 6.653915 -4.439240
v 72.747452 1.175556 -7.062775
v 78.466278 -4.240944 -4.411316
v 78.419571 1.225882 -7.058884
v 83.959564 -10.283474 3.015274
v 87.566849 -2.302719 0.783112
v 87.562698 -1.591305 -2.365677
v 84.420227 -4.305525 9.443359
v 87.547211 -0.284550 3.302582
v 83.771637 5.765676 9.467743
v 87.518585 2.943485 3.295502
v 87.502502 4.950609 0.767197
v 83.859177 10.911693 2.285431
v 87.511093 4.225416 -2.378448
v 84.830612 1.534184 -10.172958
v 87.537888 1.313989 -3.772736
v 84.971298 -6.936237 -7.439331
v 78.474075 -5.579601 1.513718
v 78.437119 -1.782055 6.254517
v 78.383224 4.292068 6.241180
v 78.352982 8.068829 1.483749
v 78.369156 6.704243 -4.435333
v 81.023224 10.946874 2.286713
v 81.996918 1.611562 -10.262375
v 82.138062 -6.979271 -7.561371
v 81.131104 -10.484343 2.957199
v 81.585876 -4.222691 9.501877
v 81.166595 5.721389 9.500000
v 81.315842 8.626223 -5.976364
v 84.151642 8.579864 -5.964691
v 29.745352 3.350458 4.731506
v 29.153708 5.107941 -3.606400
v 22.112627 5.209677 0.687149
vn -0.0032 0.4319 -0.9019
vn -0.0085 0.9744 -0.2247
vn -0.0074 0.7832 0.6218
vn -0.0007 0.0022 1.0000
vn 0.0065 -0.7804 0.6252
vn 0.0088 -0.9754 -0.2204
vn 0.0045 -0.4358 -0.9000
vn -0.0470 0.4311 -0.9011
vn -0.0454 0.4311 -0.9011
vn -0.0488 0.4310 -0.9010
vn -0.0632 0.9740 -0.2176
vn -0.0658 0.9723 -0.2243
vn -0.0541 0.9730 -0.2245
vn -0.0530 0.7819 0.6211
vn -0.0469 0.0018 0.9989
vn -0.0463 0.0018 0.9989
vn -0.0391 -0.7800 0.6245
vn -0.0368 -0.9748 -0.2202
vn -0.0411 -0.4358 -0.8991
vn -0.0452 0.4311 -0.9012
vn -0.0652 0.9727 -0.2227
vn -0.0706 0.7810 0.6205
vn -0.0475 0.0018 0.9989
vn -0.0550 -0.7837 0.6187
vn -0.0576 -0.9749 -0.2152
vn -0.0567 -0.4356 -0.8984
vn -0.0293 0.4315 -0.9016
vn -0.0224 0.4282 -0.9034
vn -0.0346 0.9738 -0.2246
vn -0.0304 0.9740 -0.2246
vn -0.0334 0.7827 0.6215
vn -0.0293 0.7828 0.6216
vn -0.0268 0.0020 0.9996
vn -0.0226 0.0020 0.9997
vn -0.0196 -0.7804 0.6250
vn -0.0154 -0.7804 0.6250
vn -0.0173 -0.9753 -0.2203
vn -0.0099 -0.9765 -0.2153
vn -0.0216 -0.4359 -0.8997
vn -0.0156 -0.4394 -0.8982
vn -0.0335 0.4314 -0.9015
vn -0.0388 0.9737 -0.2246
vn -0.0377 0.7825 0.6215
vn -0.0310 0.0019 0.9995
vn -0.0239 -0.7803 0.6249
vn -0.0215 -0.9752 -0.2203
vn -0.0259 -0.4359 -0.8996
vn -1.0000 -0.0089 -0.0007
vn -0.0712 0.0620 0.9955
vn -0.0626 0.7938 0.6050
vn -0.0623 0.9745 -0.2155
vn -0.0546 0.4506 -0.8911
vn -0.0337 -0.4879 -0.8723
vn -0.0067 -0.9776 -0.2102
vn -0.0139 -0.4428 -0.8965
vn -0.0041 -0.7746 0.6325
vn -0.0090 0.0103 0.9999
vn -0.0168 0.7897 0.6133
vn -0.0211 0.9717 -0.2354
vn -0.0198 0.4248 -0.9051
vn -0.8733 0.2364 -0.4261
vn -0.8965 0.4414 -0.0373
vn -0.7528 0.5808 0.3098
vn -0.5456 -0.1809 0.8183
vn -0.6822 -0.5632 0.4662
vn -0.7234 -0.6613 -0.1985
vn -0.7883 -0.2025 -0.5810
vn 0.8961 -0.4327 -0.0989
vn 0.9132 -0.3145 0.2591
vn 0.8565 0.0087 0.5160
vn 0.8491 0.4163 0.3251
vn 0.8327 0.5401 -0.1222
vn 0.8324 0.5403 -0.1228
vn 0.8326 0.5402 -0.1226
vn 0.9067 0.1889 -0.3770
vn 0.9352 -0.1479 -0.3218
vn 1.0000 0.0089 0.0007
vn -0.7004 0.6951 -0.1622
vn -0.6504 0.3232 -0.6874
vn -0.7398 -0.2984 -0.6030
vn -0.8597 -0.4985 -0.1115
vn -0.7802 -0.4912 0.3874
vn -0.7499 0.5158 0.4143
vn -0.7592 -0.0053 0.6508
vn 0.0143 0.9626 -0.2707
vn 0.0266 0.5188 -0.8545
vn 0.0022 0.8114 0.5845
vn 0.0167 -0.0002 0.9999
vn -0.0068 -0.7223 0.6915
vn 0.0279 -0.9491 -0.3136
vn 0.0337 -0.3028 -0.9524
vn -0.6139 0.7540 -0.2335
vn -0.6085 0.3699 -0.7021
vn 0.8322 0.5405 -0.1233
vn 0.8543 0.3248 -0.4059
vn 0.8424 0.4332 0.3206
vn -0.7217 0.5537 0.4154
vn 0.9139 -0.1108 -0.3904
vn -0.6327 -0.2417 -0.7357
vn -0.7170 -0.6379 -0.2812
vn 0.9138 -0.4041 -0.0410
vn 0.9065 -0.3396 0.2508
vn -0.8526 -0.3468 0.3910
vn -0.7290 -0.0306 0.6838
vn 0.8747 0.0552 0.4815
vn 0.0737 -0.9518 -0.2976
vn 0.0381 -0.7331 0.6790
vn 0.6122 -0.7709 -0.1756
vn 0.6776 -0.5873 0.4427
vn 0.4620 -0.1244 0.8781
vn 0.4919 0.7283 0.4771
vn 0.6333 0.7536 -0.1763
vn 0.5729 0.4028 -0.7138
vn 0.6438 -0.4337 -0.6304
vn 0.2276 0.0198 0.9736
vn 0.3789 0.8248 0.4197
vn -0.7074 0.6034 0.3680
vn -0.8609 0.4812 -0.1652
vn -0.7828 0.0733 0.6179
vn 0.6151 -0.5849 0.5287
vn 0.6002 -0.7822 -0.1670
vn -0.6250 -0.7725 -0.1123
vn 0.6748 -0.3741 -0.6362
vn -0.7580 -0.2994 -0.5795
vn 0.3441 0.2702 -0.8992
vn -0.6628 0.1546 -0.7327
vn 0.5997 0.7882 -0.1384
usemtl material_19___25200
s 1
f 4//1 3//1 2//1 1//1
f 3//2 6//2 5//2 2//2
f 6//3 8//3 7//3 5//3
f 8//4 10//4 9//4 7//4
f 10//5 12//5 11//5 9//5
f 12//6 14//6 13//6 11//6
f 14//7 4//7 1//7 13//7
f 16//6 15//6 11//6 13//6
f 18//8 17//9 3//10 4//10
f 17//11 19//12 6//13 3//13
f 19//14 20//14 8//14 6//14
f 20//15 21//15 10//16 8//16
f 21//17 22//17 12//17 10//17
f 22//18 23//18 14//18 12//18
f 23//19 18//19 4//19 14//19
f 24//20 17//9 18//8
f 25//21 19//12 17//11
f 25//22 20//22 19//22
f 26//23 21//15 20//15
f 26//24 27//24 22//24 21//24
f 27//25 28//25 23//25 22//25
f 28//26 18//26 23//26
f 45//27 44//27 43//28 42//28
f 44//29 47//29 46//30 43//30
f 47//31 49//31 48//32 46//32
f 49//33 51//33 50//34 48//34
f 51//35 53//35 52//36 50//36
f 53//37 55//37 54//38 52//38
f 55//39 45//39 42//40 54//40
f 57//41 56//41 44//27 45//27
f 56//42 58//42 47//29 44//29
f 58//43 59//43 49//31 47//31
f 59//44 60//44 51//33 49//33
f 60//45 61//45 53//35 51//35
f 61//46 62//46 55//37 53//37
f 62//47 57//47 45//39 55//39
f 62//48 61//48 60//48 59//48 58//48 56//48 57//48
f 15//5 63//5 9//5 11//5
f 63//4 64//4 7//4 9//4
f 64//3 65//3 5//3 7//3
f 65//2 66//2 2//2 5//2
f 66//1 67//1 1//1 2//1
f 67//7 69//7 68//7 16//7 13//7 1//7
f 16//6 68//6 83//6 15//6
f 15//5 83//5 84//5 63//5
f 63//4 84//4 85//4 64//4
f 64//3 85//3 86//3 65//3
f 65//2 86//2 87//2 66//2
f 66//1 87//1 69//1 67//1
f 96//49 26//49 20//49
f 25//50 96//50 20//50
f 97//51 25//21 17//11
f 24//52 97//52 17//52
f 28//53 24//53 18//53
f 38//54 52//38 54//38 40//54
f 40//55 54//40 42//40 31//55
f 36//56 50//56 52//56 38//56
f 34//57 48//57 50//57 36//57
f 98//58 46//58 48//58 34//58
f 30//59 43//59 46//59 98//59
f 31//60 42//28 43//28 30//60
usemtl material_20___25200
f 31//61 30//61 29//61
f 30//62 32//62 29//62
f 34//63 33//63 32//63
f 36//64 35//64 33//64
f 36//65 38//65 37//65 35//65
f 38//66 40//66 39//66
f 40//67 31//67 41//67
f 72//68 71//68 70//68
f 71//69 74//69 73//69
f 74//70 76//70 75//70
f 76//71 77//71 75//71
f 77//72 79//73 78//74
f 79//75 81//75 80//75
f 81//76 72//76 82//76
f 81//77 79//77 77//77 76//77 74//77 71//77 72//77
f 86//78 88//78 87//78
f 87//79 89//79 69//79
f 69//80 90//80 68//80
f 68//81 91//81 83//81
f 83//82 92//82 84//82
f 85//83 93//83 86//83
f 84//84 93//84 85//84
f 88//85 78//85 95//85 94//85
f 94//86 95//86 80//86 89//86
f 93//87 75//87 78//87 88//87
f 92//88 73//88 75//88 93//88
f 91//89 73//89 92//89
f 90//90 82//90 91//90
f 89//91 80//91 82//91 90//91
f 88//92 94//92 87//92
f 87//93 94//93 89//93
f 79//73 95//94 78//74
f 80//95 95//95 79//95
f 77//96 78//96 75//96
f 93//97 88//97 86//97
f 82//98 80//98 81//98
f 69//99 89//99 90//99
f 68//100 90//100 91//100
f 70//101 82//101 72//101
f 73//102 70//102 71//102
f 83//103 91//103 92//103
f 84//104 92//104 93//104
f 75//105 73//105 74//105
f 82//106 70//106 91//106
f 91//107 70//107 73//107
f 27//108 39//108 28//108
f 26//109 37//109 27//109
f 96//110 33//110 35//110
f 33//111 96//111 25//111
f 97//112 29//112 25//112
f 24//113 29//113 97//113
f 28//114 41//114 24//114
f 35//115 26//115 96//115
f 25//116 32//116 33//116
f 32//117 98//117 34//117
f 30//118 98//118 32//118
f 33//119 34//119 36//119
f 26//120 35//120 37//120
f 27//121 37//121 39//121
f 39//122 37//122 38//122
f 28//123 39//123 41//123
f 41//124 39//124 40//124
f 24//125 41//125 29//125
f 29//126 41//126 31//126
f 29//127 32//127 25//127
